<svg width="10" height="19" viewBox="0 0 10 19" fill="none" xmlns="http://www.w3.org/2000/svg">
<path d="M0.723824 10.0722H2.70624V17.9935C2.70624 18.1499 2.83681 18.2766 2.99794 18.2766H6.3592C6.52033 18.2766 6.6509 18.1499 6.6509 17.9935V10.1095H8.92985C9.07803 10.1095 9.2027 10.0016 9.21962 9.85875L9.56575 6.94254C9.57526 6.86231 9.54906 6.78196 9.49376 6.72177C9.43839 6.66152 9.35917 6.62704 9.27604 6.62704H6.65101V4.79901C6.65101 4.24796 6.95671 3.96852 7.5597 3.96852C7.64563 3.96852 9.27604 3.96852 9.27604 3.96852C9.43717 3.96852 9.56773 3.84174 9.56773 3.68541V1.0086C9.56773 0.852206 9.43717 0.725484 9.27604 0.725484H6.91068C6.89399 0.724691 6.85695 0.723389 6.80234 0.723389C6.39193 0.723389 4.96536 0.801585 3.83849 1.80778C2.58991 2.9228 2.76347 4.25787 2.80495 4.48934V6.62698H0.723824C0.562692 6.62698 0.432129 6.7537 0.432129 6.9101V9.78905C0.432129 9.94544 0.562692 10.0722 0.723824 10.0722Z" fill="#727272"/>
</svg>
