<svg width="60" height="60" viewBox="0 0 60 60" fill="none" xmlns="http://www.w3.org/2000/svg">
<g opacity="0.9" clip-path="url(#clip0_16_703)">
<path fill-rule="evenodd" clip-rule="evenodd" d="M29.9999 1.84376C14.4497 1.84376 1.84376 14.4497 1.84376 29.9999C1.84376 45.5502 14.4497 58.1561 29.9999 58.1561C45.5502 58.1561 58.1561 45.5502 58.1561 29.9999C58.1561 14.4497 45.5502 1.84376 29.9999 1.84376ZM-6.10352e-05 29.9999C-6.10352e-05 13.4314 13.4314 -6.10352e-05 29.9999 -6.10352e-05C46.5685 -6.10352e-05 59.9999 13.4314 59.9999 29.9999C59.9999 46.5685 46.5685 59.9999 29.9999 59.9999C13.4314 59.9999 -6.10352e-05 46.5685 -6.10352e-05 29.9999Z" fill="#6F6E6F"/>
<path d="M12.2206 30.0022C12.2206 20.1823 20.1808 12.2223 30.001 12.2219C39.8206 12.2223 47.7804 20.182 47.7808 30.0022C47.7804 39.8218 39.8206 47.7816 30.001 47.7822C20.1808 47.7816 12.2206 39.8218 12.2206 30.0022ZM18.1379 18.1395C15.1011 21.1771 13.2247 25.3679 13.2243 30.0022C13.2247 34.6364 15.1011 38.8274 18.1379 41.8648C21.1755 44.9011 25.3663 46.7779 30.001 46.7783C34.6348 46.7779 38.8256 44.9011 41.8632 41.8648C44.8997 38.8274 46.7763 34.6364 46.7767 30.0022C46.7763 25.3679 44.8997 21.1771 41.8632 18.1395C38.8256 15.1027 34.6348 13.2263 30.001 13.2259C25.3663 13.2263 21.1755 15.1027 18.1379 18.1395Z" fill="#6F6E6F"/>
<path d="M12.228 30.0012H30.0096V12.2219H30.0084C20.1886 12.2223 12.2286 20.1816 12.228 30.0012Z" fill="#6F6E6F"/>
<path d="M47.7771 29.9922H29.9955V47.7832H29.9967C39.8163 47.7828 47.7765 39.8118 47.7771 29.9922Z" fill="#6F6E6F"/>
<path d="M50.6033 13.5597L46.6409 16.181L48.5159 12.5341C48.0285 11.9582 47.2905 11.3528 47.2905 11.3528L43.6734 13.169L46.3277 9.27711C45.887 8.90712 45.3771 8.59941 44.888 8.22839L41.173 14.0231C41.173 14.0231 41.8765 14.4369 42.7373 15.2318L46.5821 13.243L44.5682 17.0271C45.0212 17.5055 45.4244 18.085 45.844 18.6023L51.6958 14.9829C51.6956 14.9829 51.3375 14.4199 50.6033 13.5597ZM30.4124 9.60859L32.1954 5.66875L32.3566 10.6635C33.0747 10.6954 34.1341 10.9656 34.1341 10.9656L33.8141 3.89131C32.4695 3.69587 31.3966 3.6424 31.3966 3.6424L29.6788 7.91576L28.0013 3.67681C28.0013 3.67681 26.8934 3.78478 25.5486 3.98002L25.2268 11.1088C25.2268 11.1088 26.2882 10.8017 27.0063 10.77L27.1579 5.69887L28.9453 9.60839H30.4124V9.60859ZM15.3224 11.9248L15.3226 11.9177C15.4091 11.6 15.406 11.2647 15.3137 10.9487C15.2213 10.6327 15.0434 10.3484 14.7995 10.1273C14.0761 9.46744 12.9985 9.44511 11.8486 10.5928C11.8486 10.5928 9.72903 12.7181 8.2931 14.7996L13.4499 19.5023L17.3362 15.1454C18.1817 14.2114 18.2147 12.8885 17.4413 12.1828C16.863 11.6563 16.0247 11.5815 15.3224 11.9248ZM10.3481 14.4525C12.175 12.1895 12.9063 11.571 12.9063 11.571C13.3853 11.1566 13.7395 11.1203 14.027 11.3823C14.3146 11.6442 14.2783 12.1535 13.9465 12.5194L11.3645 15.3789L10.3481 14.4525ZM16.1533 14.2624L13.4417 17.2729L12.4224 16.3437L15.1343 13.3333C15.4658 12.9672 15.9632 12.8779 16.2447 13.1346C16.5262 13.3913 16.485 13.8965 16.1533 14.2624Z" fill="#6F6E6F"/>
</g>
<defs>
<clipPath id="clip0_16_703">
<rect width="60" height="60" fill="white"/>
</clipPath>
</defs>
</svg>
