<svg width="14" height="23" viewBox="0 0 14 23" fill="none" xmlns="http://www.w3.org/2000/svg">
<path d="M5.86077 16.0919C4.06618 15.9103 2.44809 15.4813 1.06275 14.4297C0.89086 14.2988 0.71339 14.1727 0.556527 14.0266C-0.0498312 13.4614 -0.110928 12.814 0.368873 12.1469C0.779335 11.576 1.46837 11.4233 2.18455 11.7511C2.32323 11.8146 2.45537 11.8939 2.58192 11.9791C5.16373 13.7009 8.71048 13.7484 11.302 12.0565C11.5587 11.8654 11.8332 11.7097 12.1513 11.6301C12.7698 11.476 13.3465 11.6965 13.6784 12.2217C14.0576 12.8215 14.0528 13.407 13.5856 13.8727C12.8689 14.5866 12.007 15.1031 11.0494 15.4637C10.1438 15.8044 9.15197 15.9759 8.17031 16.0898C8.31844 16.2463 8.38827 16.3233 8.48088 16.4136C9.81385 17.7135 11.1526 19.008 12.4812 20.3119C12.9339 20.7561 13.0284 21.307 12.7792 21.8238C12.5067 22.3885 11.8967 22.7601 11.2986 22.7203C10.9197 22.6949 10.6241 22.5118 10.3615 22.2551C9.35563 21.2727 8.33081 20.3083 7.34526 19.3073C7.05845 19.0162 6.9205 19.0713 6.66738 19.324C5.65541 20.3352 4.62696 21.3308 3.59244 22.3207C3.12791 22.7653 2.57513 22.8453 2.03642 22.5914C1.46376 22.3219 1.09936 21.7546 1.12749 21.1844C1.14688 20.7987 1.3423 20.5041 1.61505 20.2399C2.9342 18.9614 4.24971 17.6796 5.56571 16.399C5.65275 16.3138 5.73397 16.2235 5.86077 16.0919Z" fill="#727272"/>
<path d="M6.95389 11.6386C3.75239 11.628 1.12718 9.05199 1.14585 5.93971C1.16428 2.79307 3.79118 0.257307 7.0242 0.266014C10.2638 0.274485 12.864 2.84672 12.8478 6.02607C12.8313 9.132 10.1879 11.6494 6.95389 11.6386ZM9.86349 5.94724C9.85791 4.40192 8.58992 3.17169 7.00093 3.17028C5.3986 3.16863 4.11921 4.42122 4.13158 5.98065C4.14346 7.52009 5.42236 8.74161 7.01572 8.73596C8.60423 8.73055 9.86882 7.49232 9.86349 5.94724Z" fill="#727272"/>
</svg>
