<svg width="22" height="13" viewBox="0 0 22 13" fill="none" xmlns="http://www.w3.org/2000/svg">
<path d="M21.0085 1.34017C21.155 0.87384 21.0085 0.53186 20.3154 0.53186H18.0195C17.4353 0.53186 17.1683 0.827708 17.0218 1.15264C17.0218 1.15264 15.8545 3.87944 14.2003 5.64751C13.6664 6.16198 13.4225 6.32444 13.1314 6.32444C12.9859 6.32444 12.7744 6.16198 12.7744 5.69564V1.34017C12.7744 0.780573 12.6059 0.53186 12.119 0.53186H8.51133C8.147 0.53186 7.92715 0.790601 7.92715 1.03731C7.92715 1.56682 8.75422 1.68917 8.83902 3.18145V6.41871C8.83902 7.12774 8.70606 7.25711 8.41292 7.25711C7.63506 7.25711 5.74222 4.52028 4.61887 1.38731C4.40006 0.778567 4.17916 0.532864 3.59289 0.532864H1.29803C0.641608 0.532864 0.510742 0.828711 0.510742 1.15364C0.510742 1.73731 1.28861 4.62558 4.13414 8.44552C6.03117 11.054 8.70187 12.468 11.1349 12.468C12.5933 12.468 12.7734 12.1541 12.7734 11.6126V9.64094C12.7734 9.01314 12.9126 8.88678 13.3743 8.88678C13.7135 8.88678 14.2977 9.05125 15.6597 10.3078C17.2155 11.7981 17.473 12.467 18.3472 12.467H20.642C21.2974 12.467 21.6251 12.1531 21.4367 11.5334C21.2304 10.9166 20.4871 10.019 19.5009 8.95698C18.9649 8.35125 18.164 7.69938 17.92 7.37345C17.5798 6.95324 17.6782 6.76771 17.92 6.39465C17.9211 6.39565 20.7174 2.62285 21.0085 1.34017Z" fill="#727272"/>
</svg>
